# xmcd CD database file
#
# Track frame offsets:
#	150
#	3106
#	24940
#	38901
#	65084
#	89941
#	108291
#	132171
#	152100
#	175126
#	194768
#	218259
#	244432
#	267253
#	270340
#
# Disc length: 3995 seconds
#
# Revision: 37
# Processed by: cddbd v1.5.2PL0 Copyright (c) Steve Scherf et al.
# Submitted via: CDex 1.70beta2
#
DISCID=ce0f990f
DTITLE=BUMP OF CHICKEN - ユグドラシル
DYEAR=2004
DGENRE=Rock
TTITLE0=asgard
TTITLE1=オンリー ロンリー グローリー (アルバムエディット)
TTITLE2=乗車権
TTITLE3=ギルド
TTITLE4=embrace
TTITLE5=sailing day
TTITLE6=同じドアをくぐれたら
TTITLE7=車輪の唄
TTITLE8=スノースマイル
TTITLE9=レム
TTITLE10=fire sign
TTITLE11=太陽
TTITLE12=ロストマン
TTITLE13=midgard
TTITLE14=O・TO・GA・MEはーと
EXTD=YEAR: 2004
EXTT0=
EXTT1=
EXTT2=
EXTT3=
EXTT4=
EXTT5=
EXTT6=
EXTT7=
EXTT8=
EXTT9=
EXTT10=
EXTT11=
EXTT12=
EXTT13=
EXTT14=
PLAYORDER=
